<?xml version="1.0" encoding="utf-8"?>
<!-- Generator: Adobe Illustrator 19.2.1, SVG Export Plug-In . SVG Version: 6.00 Build 0)  -->
<svg version="1.1" id="Layer_1" xmlns="http://www.w3.org/2000/svg" xmlns:xlink="http://www.w3.org/1999/xlink" x="0px" y="0px"
	 viewBox="0 0 1417.3 850.4" style="enable-background:new 0 0 1417.3 850.4;" xml:space="preserve">
<style type="text/css">
	.st0{fill:#FBB430;}
	.st1{fill:#18355F;}
	.st2{fill:#FFFFFF;}
</style>
<path class="st0" d="M651.8,423.4c-5.9,8.6-12,17.4-18.3,26.2l-0.1,0.1C556.1,557.4,447.6,677.9,398.7,706
	c-26.4,15.2-111.8,44.8-165.6-18.3c-53.8-63-99-181.4-113.5-211.6c0,0-51.4-116.9-56.4-172.1c-5-55.1,30-117.7,107.8-125.6
	c77.9-7.9,251.4-15.9,432,70.4c0,0,4.5,2.1,11.2,6.2h0C643.5,273,715.6,329.8,651.8,423.4z"/>
<path class="st1" d="M266.1,614.4c0,0-119-46.3-161.6-81.8c-42.5-35.4-62-104.4-12.6-165.1s166.5-188.9,355.3-255.7
	c0,0,131.9-48,157.9,89c25.6,135,36.8,319.9,20.9,378.8c-7.9,29.4-47.4,110.7-130,104.1S297.7,625.6,266.1,614.4z"/>
<g>
	<path class="st2" d="M301,343.5l-1.7,8.7h-1.5c-10.8-14.6-33.2-20.1-51.9-20.1c-19.5,0-43.1,6.4-43.1,31.2
		c0,11.7,9.9,15.4,35.8,24.2c24.5,8.2,48.4,22.7,48.4,51.6c-0.3,41.1-31.5,66.7-83.3,66.7c-27.1,0-56.2-11.7-56.2-34.4
		c0-2.3,0.3-5,0.9-7.6l2.9-13.4h1.5c10.2,14,33.8,22.7,56.2,22.7c35.5,0,39.9-18.9,39.9-31.5c0-14.6-12.5-19.8-37.3-28
		c-21.6-7-47.2-18.9-47.2-47.5c0.3-34.4,30.6-66.4,83.9-66.4c28.8,0,54.5,11.9,54.5,32.9C302.7,336.2,301.6,340,301,343.5z"/>
	<path class="st2" d="M452.2,376.1l-2.9,12.8h-1.5c-5-10.2-22.4-15.1-33.8-15.1c-50.1,0-56.8,46.3-56.8,58.8
		c0,32,22.4,39.9,36.4,39.9c20.1,0,31.2-6.1,39-11.4h1.7l-3.2,13.7c-3.5,15.1-20.1,30.3-50.1,30.3c-9.6,0-62.3-7-62.3-69.9
		c0-18.4,15.1-93.8,94.7-93.8c15.1,0,39.3,8.7,39.3,28.6C452.8,371.8,452.8,373.5,452.2,376.1z"/>
	<path class="st2" d="M595.2,410.8l-6.7,32.3c-9.3,45.2-30.3,62.6-75.7,62.6c-14.3,0-54.2-6.1-54.2-44.3c0-31.2,24.2-55.6,88.6-55.6
		h13.7l1.5-6.4c0.6-2.6,0.9-5.2,0.9-8.4c0-15.4-13.4-19.5-30-19.5c-23,0-39,7-52.1,19.2h-1.7l2.6-14.3c3.5-19.2,28.3-35.3,59.4-35.3
		c29.4,0,55.6,15.1,56.2,47.5C597.6,395.3,597,402.3,595.2,410.8z M537,431.8c-17.5,0-41.7,3.8-41.7,27.1
		c0,12.5,11.1,17.8,23.9,17.8c18.9,0,28.8-8.4,32.6-26.5l3.8-18.4H537z"/>
</g>
<g>
	<path class="st2" d="M748.3,483c-2.9,15.7-15.4,20.7-31.5,20.7c-21.6,0-38.5-11.9-38.5-36.1c0-6.4,0.3-11.1,1.5-16l34.1-161.1h11.9
		c12.8,0,20.4,5.5,20.4,18.4c0,2.9-0.3,6.1-1.2,9.6l-27.7,129.9c-0.6,2.6-0.9,5.2-0.9,7.6c0,14.3,11.4,16.3,24.5,16.3h9.3L748.3,483
		z"/>
	<path class="st2" d="M906.5,410.8l-6.7,32.3c-9.3,45.2-30.3,62.6-75.7,62.6c-14.3,0-54.2-6.1-54.2-44.3c0-31.2,24.2-55.6,88.6-55.6
		h13.7l1.5-6.4c0.6-2.6,0.9-5.2,0.9-8.4c0-15.4-13.4-19.5-30-19.5c-23,0-39,7-52.1,19.2h-1.7l2.6-14.3c3.5-19.2,28.3-35.3,59.4-35.3
		c29.4,0,55.6,15.1,56.2,47.5C908.8,395.3,908.2,402.3,906.5,410.8z M848.2,431.8c-17.5,0-41.7,3.8-41.7,27.1
		c0,12.5,11.1,17.8,23.9,17.8c18.9,0,28.8-8.4,32.6-26.5l3.8-18.4H848.2z"/>
	<path class="st2" d="M993.6,505.8C956,505.8,933,481,933,446c0-7,0.9-13.1,2.3-20.4l28.6-135.2h11.4c14.6,0,20.7,5,20.7,16
		c0,1.7-0.6,5.8-1.2,9.3l-11.7,54.5c8.2-14.9,25.6-28.6,47.5-28.6c21.6,0,56.2,13.7,56.2,61.2
		C1086.8,458.6,1049.5,505.8,993.6,505.8z M1019.8,372.6c-39,0-50.1,48.1-50.1,68.5c0,22.1,10.8,34.1,30,34.1
		c33.2,0,49.5-37.6,49.5-67.3C1049.2,379.6,1033.8,372.6,1019.8,372.6z"/>
	<path class="st2" d="M1165.4,438.2h-19.5v2.9c0,31.8,24.5,34.4,38.7,34.4c20.7,0,35.5-4.4,48.4-13.4h1.2l-1.7,10.2
		c-3.8,21.3-25.3,33.5-60,33.5c-21.9,0-62.9-11.9-62.9-67v-1.2c0.3-23,18.9-96.4,90-96.4c17.2,0,56.2,11.1,56.2,48.9
		C1255.8,423.3,1233.9,438.2,1165.4,438.2z M1194.6,370.9c-28,0-40.8,22.7-44.3,35.5l-1.5,5.5h18.6c13.4,0,24.8-0.9,32.6-2
		c12.8-2,21.3-7.6,21.3-18.4C1221.4,375.8,1207.7,370.9,1194.6,370.9z"/>
	<path class="st2" d="M1342,483c-2.9,15.7-15.4,20.7-31.5,20.7c-21.6,0-38.5-11.9-38.5-36.1c0-6.4,0.3-11.1,1.5-16l34.1-161.1h11.9
		c12.8,0,20.4,5.5,20.4,18.4c0,2.9-0.3,6.1-1.2,9.6l-27.7,129.9c-0.6,2.6-0.9,5.2-0.9,7.6c0,14.3,11.4,16.3,24.5,16.3h9.3L1342,483z
		"/>
</g>
</svg>
